<svg width="400" height="300" viewBox="0 0 400 300" fill="none" xmlns="http://www.w3.org/2000/svg">
  <rect width="400" height="300" fill="#1a202c"/>
  <rect x="20" y="20" width="360" height="260" fill="#2d3748" stroke="#4299e1" stroke-width="2"/>
  
  <!-- Shield Icon -->
  <path d="M200 60 L170 75 L170 120 C170 135 185 150 200 155 C215 150 230 135 230 120 L230 75 Z" fill="#4299e1" stroke="#63b3ed" stroke-width="2"/>
  <path d="M200 70 L180 80 L180 115 C180 125 190 135 200 140 C210 135 220 125 220 115 L220 80 Z" fill="#2d3748"/>
  
  <!-- Lock symbol inside shield -->
  <rect x="195" y="95" width="10" height="15" fill="#4299e1" rx="1"/>
  <circle cx="200" cy="90" r="4" stroke="#4299e1" stroke-width="2" fill="none"/>
  
  <!-- Network nodes -->
  <circle cx="100" cy="180" r="8" fill="#48bb78"/>
  <circle cx="150" cy="200" r="8" fill="#48bb78"/>
  <circle cx="250" cy="200" r="8" fill="#48bb78"/>
  <circle cx="300" cy="180" r="8" fill="#48bb78"/>
  <circle cx="200" cy="220" r="8" fill="#ed8936"/>
  
  <!-- Network connections -->
  <line x1="108" y1="180" x2="142" y2="200" stroke="#4299e1" stroke-width="2"/>
  <line x1="158" y1="200" x2="192" y2="220" stroke="#4299e1" stroke-width="2"/>
  <line x1="208" y1="220" x2="242" y2="200" stroke="#4299e1" stroke-width="2"/>
  <line x1="258" y1="200" x2="292" y2="180" stroke="#4299e1" stroke-width="2"/>
  <line x1="150" y1="200" x2="250" y2="200" stroke="#4299e1" stroke-width="2"/>
  
  <!-- Title -->
  <text x="200" y="45" text-anchor="middle" fill="#4299e1" font-family="Arial, sans-serif" font-size="16" font-weight="bold">CYBERSECURITY</text>
  
  <!-- Bottom text -->
  <text x="200" y="260" text-anchor="middle" fill="#4299e1" font-family="Arial, sans-serif" font-size="14" font-weight="bold">Network Security Guide</text>
  <text x="200" y="275" text-anchor="middle" fill="#a0aec0" font-family="Arial, sans-serif" font-size="11">OWASP Foundation</text>
</svg>
