<svg width="400" height="300" viewBox="0 0 400 300" fill="none" xmlns="http://www.w3.org/2000/svg">
  <rect width="400" height="300" fill="#ff6f00"/>
  <rect x="20" y="20" width="360" height="260" fill="#1a1a1a" stroke="#ff6f00" stroke-width="2"/>
  <circle cx="150" cy="80" r="15" fill="#ff6f00"/>
  <circle cx="200" cy="80" r="15" fill="#ff6f00"/>
  <circle cx="250" cy="80" r="15" fill="#ff6f00"/>
  <circle cx="120" cy="120" r="12" fill="#ffb74d"/>
  <circle cx="170" cy="120" r="12" fill="#ffb74d"/>
  <circle cx="220" cy="120" r="12" fill="#ffb74d"/>
  <circle cx="270" cy="120" r="12" fill="#ffb74d"/>
  <circle cx="100" cy="160" r="10" fill="#ffcc80"/>
  <circle cx="140" cy="160" r="10" fill="#ffcc80"/>
  <circle cx="180" cy="160" r="10" fill="#ffcc80"/>
  <circle cx="220" cy="160" r="10" fill="#ffcc80"/>
  <circle cx="260" cy="160" r="10" fill="#ffcc80"/>
  <circle cx="300" cy="160" r="10" fill="#ffcc80"/>
  <path d="M100 80 L120 120 L100 160" stroke="#ff6f00" stroke-width="2" fill="none"/>
  <path d="M150 80 L170 120 L140 160" stroke="#ff6f00" stroke-width="2" fill="none"/>
  <path d="M200 80 L220 120 L180 160" stroke="#ff6f00" stroke-width="2" fill="none"/>
  <text x="200" y="210" text-anchor="middle" fill="#ff6f00" font-family="Arial, sans-serif" font-size="16" font-weight="bold">Machine Learning</text>
  <text x="200" y="230" text-anchor="middle" fill="#ff6f00" font-family="Arial, sans-serif" font-size="14">Yearning</text>
  <text x="200" y="250" text-anchor="middle" fill="#ffb74d" font-family="Arial, sans-serif" font-size="12">Andrew Ng</text>
</svg>
